# xmcd
#
# Track frame offsets: 
#        150
#        20515
#        42267
#        63762
#        83587
#        97732
#        121170
#        143525
#        165927
#        187762
#        206160
#        218432
#
# Disc length: 3166 seconds
#
# Revision: 12
# Processed by: cddbd v1.5.2PL0 Copyright (c) Steve Scherf et al.
# Submitted via: ExactAudioCopy v1.5
#
DISCID=860c5c0c
DTITLE=Various Artist - The Bodyguard (Soundtrack)
DYEAR=1992
DGENRE=Soundtrack
TTITLE0=Whitney Houston - I will Always Love You
TTITLE1=Whitney Houston - I Have Nothing
TTITLE2=Whitney Houston - I'm Every Woman
TTITLE3=Whitney Houston - Run to You
TTITLE4=Whitney Houston - Queen of the Night
TTITLE5=Whitney Houston - Jesus Loves Me
TTITLE6=Kenny G and Aaron Neville - Even If My Heart Would Break
TTITLE7=Lisa Stansfield - Someday (I'm Coming Back)
TTITLE8=The S.O.U.L. S.Y.S.T.E.M. - It's Gonna Be A Lovely Day
TTITLE9=Curtis Stigers - (What's So Funny 'Bout) Peace, Love And Under
TTITLE9=standing
TTITLE10=(Instrumental) - Theme From The Bodyguard
TTITLE11=Joe Cocker (featuring Sass Jordan) - Trust In Me
EXTD=YEAR: 1992
EXTT0=
EXTT1=
EXTT2=
EXTT3=
EXTT4=
EXTT5=
EXTT6=
EXTT7=
EXTT8=
EXTT9=
EXTT10=
EXTT11=
PLAYORDER=
